# xmcd
#
# Track frame offsets:
#	150
#	11475
#	24350
#	36397
#	49592
#	65852
#	81860
#	96057
#	109090
#	125017
#	139727
#
# Disc length: 2067 seconds
#
# Revision: 4
# Processed by: cddbd v1.5.2PL0 Copyright (c) Steve Scherf et al.
# Submitted via: audiograbber 1.83.01
#
DISCID=9208110b
DTITLE=Waylon Jennings - 20th Century Masters - The Millennium Collection - The
DTITLE=Best Of 
DYEAR=2000
DGENRE=Oldies
TTITLE0=Rough And Rowdy Days
TTITLE1=If Ole Hank Could See Us Now
TTITLE2=Working Without A Net
TTITLE3=What You'll Do When I'm Gone
TTITLE4=Rose In Paradise
TTITLE5=Fallin' Out
TTITLE6=Which Way Do I Go (Now That I'm Gone)
TTITLE7=How Much Is It Worth To Live In L.A.
TTITLE8=You Put The Soul In Song
TTITLE9=Trouble Man
TTITLE10=Will The Wolf Survive
EXTD=
EXTT0=
EXTT1=
EXTT2=
EXTT3=
EXTT4=
EXTT5=
EXTT6=
EXTT7=
EXTT8=
EXTT9=
EXTT10=
PLAYORDER=
